<svg width="115" height="77" viewBox="0 0 115 77" fill="none" xmlns="http://www.w3.org/2000/svg">
<path d="M114.5 -20V-20.5H114H107.015C91.235 -20.5 79.1863 -16.3139 70.957 -7.86358C62.7211 0.593559 58.6565 13.9272 58.6565 32.0219V35.4033C58.6565 45.3233 59.9535 53.2903 62.5791 59.2741L62.5827 59.2823L62.5866 59.2904C65.3772 65.0775 68.9711 69.3237 73.3852 71.9866L73.3952 71.9926L73.4054 71.9982C77.9662 74.4674 82.9638 75.7 88.3891 75.7C96.7649 75.7 103.132 73.2406 107.392 68.2454C111.787 63.2952 113.983 57.3676 113.983 50.4896C113.983 43.0989 111.703 37.3152 107.092 33.2122C102.678 29.1304 97.1206 27.1 90.4587 27.1C88.9288 27.1 87.4617 27.2339 86.0584 27.5028C86.1719 23.4748 86.5951 20.1518 87.319 17.5235C88.0813 14.7559 89.1656 12.7992 90.5318 11.5871L90.5378 11.5818L90.5437 11.5763C93.3414 8.92873 97.845 7.55137 104.17 7.55137H114H114.5V7.05137V-20ZM50.3435 -20V-20.5H49.8435H42.8587C27.0785 -20.5 15.0298 -16.3139 6.80049 -7.86358C-1.43546 0.593557 -5.5 13.9272 -5.5 32.0219V35.4033C-5.5 45.3233 -4.203 53.2903 -1.57743 59.2741L-1.57383 59.2823L-1.56994 59.2904C1.22067 65.0775 4.81461 69.3237 9.22868 71.9866L9.23866 71.9926L9.24891 71.9982C13.8097 74.4674 18.8073 75.7 24.2326 75.7C32.6084 75.7 38.975 73.2406 43.2357 68.2454C47.6301 63.2952 49.8261 57.3676 49.8261 50.4896C49.8261 43.0989 47.5468 37.3153 42.9361 33.2123C38.5217 29.1305 32.9642 27.1 26.3022 27.1C24.7722 27.1 23.3052 27.2339 21.9019 27.5028C22.0154 23.4748 22.4386 20.1518 23.1625 17.5235C23.9247 14.7559 25.0091 12.7992 26.3753 11.5871L26.3813 11.5818L26.3872 11.5763C29.1849 8.92873 33.6885 7.55137 40.013 7.55137H49.8435H50.3435V7.05137V-20Z" stroke="url(#paint0_linear)"/>
<defs>
<linearGradient id="paint0_linear" x1="54" y1="75" x2="54" y2="-0.500001" gradientUnits="userSpaceOnUse">
<stop stop-color="#2659FF" stop-opacity="0.6"/>
<stop offset="0.520235" stop-color="#2659FF" stop-opacity="0.29"/>
<stop offset="1" stop-color="#2659FF" stop-opacity="0"/>
</linearGradient>
</defs>
</svg>
