<svg width="375" height="303" viewBox="0 0 375 303" fill="none" xmlns="http://www.w3.org/2000/svg">
<path d="M342.189 244.463H21.8489C19.3599 244.489 16.8925 243.998 14.6028 243.022C12.313 242.046 10.2506 240.605 8.54581 238.792C6.84106 236.978 5.53104 234.83 4.69849 232.484C3.86594 230.139 3.52896 227.646 3.70887 225.163L15.9289 22.423C16.3132 17.2286 18.6288 12.3665 22.4194 8.79428C26.21 5.22207 31.2008 3.19882 36.4089 3.12304H356.669C359.158 3.09717 361.625 3.58782 363.915 4.56399C366.205 5.54016 368.267 6.98065 369.972 8.79441C371.677 10.6082 372.987 12.7558 373.819 15.1016C374.652 17.4474 374.989 19.9404 374.809 22.423L362.569 225.243C362.172 230.408 359.863 235.239 356.095 238.793C352.326 242.347 347.368 244.369 342.189 244.463Z" fill="#F3F3F3"/>
<path d="M64.7089 201.604L94.2489 302.664L181.889 201.604H64.7089Z" fill="#F3F3F3"/>
<path d="M230.529 211.901H50.989C49.5948 211.913 48.2133 211.636 46.9313 211.088C45.6494 210.539 44.4949 209.731 43.5405 208.715C42.5861 207.699 41.8525 206.496 41.3858 205.182C40.9192 203.868 40.7296 202.472 40.8291 201.081L47.689 87.441C47.9034 84.5323 49.1983 81.809 51.319 79.8067C53.4397 77.8045 56.2328 76.6681 59.149 76.621H238.689C240.088 76.5939 241.476 76.8605 242.765 77.4036C244.054 77.9467 245.215 78.7542 246.173 79.7739C247.13 80.7936 247.863 82.0029 248.324 83.3236C248.785 84.6442 248.964 86.0469 248.849 87.441L241.989 201.081C241.775 203.99 240.48 206.713 238.359 208.715C236.238 210.718 233.445 211.854 230.529 211.901Z" fill="white"/>
<g filter="url(#filter0_d)">
<path d="M326.57 162.882H147.05C145.654 162.897 144.27 162.622 142.986 162.074C141.701 161.527 140.544 160.72 139.588 159.703C138.631 158.687 137.896 157.483 137.428 156.167C136.96 154.852 136.77 153.454 136.87 152.062L143.73 38.4219C143.944 35.5098 145.242 32.7837 147.367 30.781C149.492 28.7782 152.29 27.644 155.21 27.6019H334.73C336.13 27.5719 337.521 27.8364 338.812 28.3783C340.104 28.9201 341.267 29.7272 342.227 30.7472C343.186 31.7673 343.921 32.9775 344.383 34.2996C344.845 35.6217 345.025 37.0261 344.91 38.4219L338.05 152.062C337.835 154.974 336.537 157.7 334.412 159.703C332.287 161.706 329.489 162.84 326.57 162.882Z" fill="white"/>
</g>
<path d="M330 88.0928L314.374 103.782L283.099 135.162L267.473 119.472L298.725 88.0928L267.473 56.6897L283.099 41L330 88.0928Z" fill="#F3F3F3"/>
<path d="M251.847 103.782L267.473 119.471C250.211 136.804 222.208 136.804 204.946 119.471C187.685 102.139 187.685 74.0212 204.946 56.6888C222.208 39.3563 250.211 39.3563 267.473 56.6888L251.847 72.3785C247.84 68.3549 242.315 65.8788 236.222 65.8788C224.01 65.8788 214.123 75.8069 214.123 88.0681C214.123 100.329 224.01 110.257 236.222 110.257C242.315 110.281 247.84 107.781 251.847 103.782Z" fill="#F3F3F3"/>
<path d="M258.32 88.093C258.32 94.2355 255.854 99.7829 251.847 103.783L236.221 88.093L251.847 72.4033C255.831 76.4031 258.32 81.9505 258.32 88.093Z" fill="#F3F3F3"/>
<path opacity="0.5" d="M48.6089 20.7627C48.5726 22.2984 47.9637 23.7652 46.9018 24.8752C45.8399 25.9852 44.4015 26.6584 42.8689 26.7627C42.1404 26.7266 41.4277 26.5377 40.7769 26.2082C40.1262 25.8787 39.5521 25.416 39.0919 24.8502C38.6317 24.2843 38.2956 23.628 38.1056 22.9238C37.9156 22.2196 37.8758 21.4833 37.9889 20.7627C38.0342 19.2298 38.646 17.768 39.7062 16.6599C40.7663 15.5517 42.1995 14.8758 43.7289 14.7627C44.4574 14.7988 45.1702 14.9877 45.8209 15.3172C46.4716 15.6467 47.0457 16.1094 47.506 16.6752C47.9662 17.2411 48.3023 17.8974 48.4923 18.6016C48.6823 19.3058 48.722 20.0421 48.6089 20.7627Z" fill="white"/>
<path opacity="0.5" d="M68.1884 20.7617C68.1475 22.296 67.5372 23.7603 66.4762 24.8693C65.4151 25.9784 63.9794 26.653 62.4484 26.7617C61.7182 26.7284 61.0032 26.5414 60.3501 26.2131C59.697 25.8848 59.1204 25.4225 58.6581 24.8563C58.1957 24.2901 57.8579 23.6329 57.6667 22.9273C57.4755 22.2218 57.4352 21.4839 57.5484 20.7617C57.5937 19.2288 58.2055 17.7671 59.2656 16.6589C60.3258 15.5508 61.759 14.8748 63.2884 14.7617C64.0175 14.7981 64.7309 14.9871 65.3824 15.3164C66.034 15.6457 66.6093 16.1079 67.071 16.6734C67.5328 17.2388 67.8708 17.8948 68.0633 18.599C68.2558 19.3033 68.2984 20.04 68.1884 20.7617Z" fill="white"/>
<path opacity="0.5" d="M87.9084 20.7617C87.8721 22.2975 87.2633 23.7642 86.2013 24.8742C85.1394 25.9842 83.7011 26.6574 82.1685 26.7617C81.44 26.7257 80.7272 26.5367 80.0765 26.2072C79.4258 25.8777 78.8516 25.415 78.3914 24.8492C77.9312 24.2833 77.5952 23.627 77.4051 22.9228C77.2151 22.2186 77.1753 21.4823 77.2884 20.7617C77.3337 19.2288 77.9456 17.7671 79.0057 16.6589C80.0659 15.5508 81.4991 14.8748 83.0285 14.7617C83.757 14.7978 84.4697 14.9867 85.1204 15.3162C85.7711 15.6457 86.3453 16.1084 86.8055 16.6743C87.2658 17.2401 87.6018 17.8964 87.7918 18.6006C87.9818 19.3048 88.0215 20.0412 87.9084 20.7617Z" fill="white"/>
<path opacity="0.3" d="M339.709 242.583H19.4495C16.893 242.603 14.36 242.094 12.0096 241.089C9.65923 240.083 7.54226 238.602 5.79174 236.739C4.04121 234.875 2.69496 232.67 1.83755 230.262C0.980132 227.853 0.630098 225.293 0.809438 222.743L13.0494 20.0032C13.4343 14.6815 15.8006 9.69746 19.6812 6.03539C23.5617 2.37333 28.6743 0.299426 34.0094 0.223229H354.189C356.746 0.203141 359.279 0.711993 361.629 1.71781C363.98 2.72363 366.097 4.20467 367.847 6.06789C369.598 7.93111 370.944 10.1363 371.801 12.5447C372.659 14.9532 373.009 17.513 372.829 20.0632L360.609 222.803C360.221 228.113 357.862 233.086 353.995 236.746C350.128 240.406 345.033 242.488 339.709 242.583ZM34.0094 1.24323C28.9211 1.30528 24.0417 3.27611 20.3376 6.76534C16.6336 10.2546 14.3751 15.0077 14.0095 20.0832L1.76943 222.823C1.59215 225.239 1.91813 227.664 2.72674 229.947C3.53534 232.23 4.80897 234.32 6.46703 236.085C8.12509 237.851 10.1315 239.252 12.3593 240.202C14.5871 241.152 16.9878 241.629 19.4094 241.603H339.709C344.796 241.537 349.673 239.564 353.376 236.076C357.079 232.588 359.339 227.837 359.709 222.763L371.929 20.0232C372.101 17.6008 371.768 15.169 370.952 12.882C370.135 10.5949 368.852 8.50239 367.184 6.73696C365.516 4.97153 363.5 3.57164 361.263 2.62597C359.027 1.6803 356.618 1.20945 354.189 1.24323H34.0094Z" fill="white"/>
<path d="M166.289 124.062C164.929 126.942 163.689 129.402 162.289 132.062C160.889 134.722 159.489 137.122 158.049 139.622C155.109 144.602 152.049 149.622 148.769 154.302C147.116 156.702 145.423 159.082 143.689 161.442C141.869 163.762 140.149 166.122 138.209 168.382C134.425 173.066 130.343 177.502 125.989 181.662C124.889 182.742 123.689 183.662 122.529 184.802C121.378 185.881 120.163 186.89 118.889 187.822L115.049 190.722L113.869 191.542C113.347 191.873 112.806 192.173 112.249 192.442C111.151 192.969 109.997 193.371 108.809 193.642C106.462 194.19 104.022 194.209 101.666 193.697C99.3099 193.185 97.0976 192.155 95.1894 190.682C94.2428 189.935 93.378 189.091 92.6094 188.162L92.0694 187.442L91.8094 187.082L91.7094 186.922L91.3493 186.282L89.9093 183.682C89.4693 182.842 89.1694 182.042 88.8094 181.222C87.5494 178.204 86.5198 175.095 85.7293 171.922C84.3371 166.139 83.3612 160.264 82.8094 154.342C82.2247 148.574 81.9709 142.778 82.0494 136.982C82.0918 135.337 82.7204 133.762 83.8218 132.54C84.9232 131.318 86.425 130.53 88.0564 130.317C89.6877 130.105 91.3413 130.482 92.7188 131.382C94.0964 132.281 95.1073 133.643 95.5694 135.222V135.462C98.2197 145.655 101.499 155.674 105.389 165.462C106.28 167.533 107.316 169.538 108.489 171.462C108.749 171.862 109.009 172.342 109.269 172.682L110.029 173.602L110.209 173.842L110.109 173.682L109.889 173.382C109.576 172.972 109.213 172.602 108.809 172.282C108.011 171.638 107.083 171.174 106.089 170.922C105.094 170.711 104.065 170.711 103.069 170.922C102.552 171.031 102.049 171.199 101.569 171.422C101.309 171.422 101.089 171.682 100.849 171.802C100.609 171.922 100.249 172.222 100.509 172.002L103.009 169.562C103.849 168.802 104.669 167.882 105.489 167.002C106.309 166.122 107.149 165.262 107.949 164.322C114.543 156.414 120.546 148.031 125.909 139.242C128.649 134.782 131.349 130.242 133.909 125.642L137.769 118.722L141.429 111.962L141.629 111.602C143.365 108.495 146.234 106.178 149.637 105.137C153.041 104.095 156.715 104.408 159.892 106.011C163.07 107.614 165.505 110.383 166.69 113.739C167.875 117.095 167.717 120.779 166.249 124.022L166.289 124.062Z" fill="#2659FF"/>
<path d="M83.9291 136.102L74.1891 130.522L84.6691 119.822C87.7407 122.098 90.5871 124.663 93.1691 127.482C93.7772 128.127 94.2259 128.906 94.4792 129.755C94.7325 130.605 94.7835 131.502 94.628 132.375C94.4725 133.248 94.1148 134.072 93.5837 134.782C93.0525 135.491 92.3626 136.067 91.5692 136.462C90.361 137.023 89.0353 137.283 87.705 137.22C86.3747 137.157 85.0792 136.774 83.9291 136.102Z" fill="#FFC3BD"/>
<path d="M71.969 119.063L77.269 115.283C77.9579 114.782 78.8163 114.572 79.6584 114.699C80.5006 114.827 81.2589 115.281 81.769 115.963L84.6689 119.823L74.189 130.523L70.889 123.003C70.5893 122.322 70.5331 121.558 70.7297 120.841C70.9264 120.123 71.364 119.496 71.969 119.063Z" fill="#FFC3BD"/>
<path d="M145.309 115.103C146.103 112.49 147.602 110.146 149.641 108.328C151.681 106.511 154.181 105.292 156.869 104.803C160.752 103.945 164.687 103.344 168.649 103.003C180.578 102.537 192.524 102.751 204.429 103.643C210.669 104.063 217.049 104.943 222.129 105.783H222.309C224.999 106.229 227.403 107.724 228.992 109.94C230.582 112.156 231.228 114.912 230.789 117.603C228.289 132.043 220.949 157.163 220.149 180.863C219.089 211.983 219.569 229.903 219.029 237.403L138.929 235.863C133.349 159.803 140.289 132.323 145.309 115.103Z" fill="white"/>
<path d="M224.449 104.603H224.189C218.829 103.723 212.189 102.783 205.529 102.343L201.969 102.143C198.469 116.623 177.609 140.983 171.289 177.903C168.849 147.043 166.969 114.783 170.549 102.203C164.888 102.375 159.24 102.849 153.629 103.623C150.662 104.294 147.925 105.739 145.698 107.812C143.47 109.885 141.832 112.511 140.949 115.423C136.029 129.903 126.629 162.343 132.409 242.103H221.429C222.009 234.103 219.929 217.303 223.149 191.443C226.249 166.403 230.709 132.323 233.329 117.103C233.799 114.269 233.129 111.364 231.465 109.023C229.802 106.681 227.28 105.092 224.449 104.603Z" fill="#2659FF"/>
<path d="M203.614 143.667C203.363 143.667 203.135 143.768 202.949 143.938L202.845 143.713H202.284V146.999H202.949V146.153C203.21 146.304 203.524 146.369 203.854 146.311C204.385 146.217 204.816 145.79 204.917 145.259C205.079 144.41 204.434 143.667 203.614 143.667ZM203.614 145.667C203.317 145.667 202.877 145.47 202.932 144.852C202.954 144.61 203.196 144.335 203.614 144.335C203.979 144.335 204.279 144.631 204.279 144.999C204.279 145.359 203.993 145.667 203.614 145.667Z" fill="white"/>
<path d="M205.934 144.334V145C205.934 145.368 206.23 145.666 206.599 145.666V146.332C205.865 146.332 205.27 145.734 205.27 144.998V143.13H205.934V143.714H206.599V144.334H205.934Z" fill="white"/>
<path d="M200.673 143.667C199.939 143.667 199.344 144.263 199.344 145.001C199.344 145.737 199.939 146.335 200.673 146.335C201.406 146.335 202.001 145.737 202.001 145.001C202.001 144.263 201.406 143.667 200.673 143.667ZM200.673 145.667C200.306 145.667 200.009 145.369 200.009 145.001C200.009 144.633 200.306 144.335 200.673 144.335C201.039 144.335 201.336 144.633 201.336 145.001C201.338 145.369 201.039 145.667 200.673 145.667Z" fill="white"/>
<path d="M196.327 143H195.663H195V143.666V145V145.666V146.332H195.663V145.668H196.327C197.06 145.668 197.655 145.07 197.655 144.334C197.654 143.598 197.06 143 196.327 143ZM196.327 145.002H195.663V143.668H196.327C196.694 143.668 196.99 143.966 196.99 144.334C196.99 144.702 196.694 145.002 196.327 145.002Z" fill="white"/>
<path d="M198.604 143.94C198.788 143.769 199.018 143.668 199.267 143.668V144.334C198.9 144.334 198.604 144.558 198.604 144.834V143.94Z" fill="white"/>
<path d="M198.604 146.334H197.94V143.714H198.501L198.604 143.94V146.334Z" fill="white"/>
<path d="M210.393 143.94C210.577 143.769 210.808 143.668 211.057 143.668V144.334C210.69 144.334 210.393 144.558 210.393 144.834V143.94Z" fill="white"/>
<path d="M210.393 146.334H209.728V143.714H210.289L210.393 143.94V146.334Z" fill="white"/>
<path d="M209.387 144.729C209.262 144.122 208.729 143.667 208.087 143.667C207.354 143.667 206.761 144.263 206.761 144.999C206.761 145.737 207.354 146.333 208.087 146.333V145.718C207.809 145.718 207.574 145.533 207.475 145.271H209.416V144.999C209.416 144.907 209.407 144.816 209.387 144.729ZM207.475 144.729C207.572 144.467 207.809 144.282 208.087 144.282C208.365 144.282 208.602 144.467 208.701 144.729H207.475Z" fill="white"/>
<path opacity="0.2" d="M169.389 237.943C169.255 237.949 169.123 237.902 169.022 237.812C168.922 237.723 168.86 237.598 168.849 237.463C166.969 214.963 170.489 182.663 170.529 182.323C170.537 182.255 170.558 182.188 170.591 182.128C170.624 182.068 170.669 182.015 170.723 181.972C170.777 181.929 170.839 181.898 170.905 181.879C170.972 181.86 171.041 181.855 171.109 181.863C171.249 181.878 171.377 181.947 171.467 182.056C171.557 182.164 171.601 182.303 171.589 182.443C171.589 182.763 168.029 214.983 169.909 237.363C169.918 237.433 169.912 237.504 169.892 237.571C169.872 237.639 169.838 237.702 169.794 237.756C169.749 237.81 169.693 237.855 169.631 237.887C169.568 237.919 169.5 237.938 169.429 237.943H169.389Z" fill="white"/>
<path opacity="0.3" d="M221.309 136.262C218.009 151.222 219.769 171.942 223.309 190.842C225.929 169.622 229.509 142.082 232.129 125.042C228.469 122.602 223.929 124.322 221.309 136.262Z" fill="#02080C"/>
<path d="M170.349 102.903C180.729 100.623 182.529 94.2234 181.789 87.1434C181.607 85.3746 181.319 83.6182 180.929 81.8834L193.889 71.2834L203.429 63.5234C200.829 75.0034 197.969 95.9434 205.809 103.763C205.809 103.763 199.409 114.263 181.609 112.983C166.569 111.903 170.349 102.903 170.349 102.903Z" fill="#FFC3BD"/>
<path d="M186.129 110.343L183.249 113.063L192.449 116.523L191.249 113.023L186.129 110.343Z" fill="#F3F4F8"/>
<path d="M193.169 121.401C193.169 121.401 189.549 112.261 186.129 110.321C192.855 108.717 199.017 105.308 203.949 100.461L209.409 102.641C209.409 102.641 211.129 113.241 193.169 121.401Z" fill="#F5F5F5"/>
<path d="M181.089 109.621L183.249 113.061L173.569 113.901L175.509 110.841L181.089 109.621Z" fill="#F3F4F8"/>
<path d="M168.709 118.822C172.256 115.044 176.448 111.928 181.089 109.622C175.829 108.062 175.509 100.822 175.509 100.822L170.409 101.802C170.409 101.802 161.049 110.902 168.709 118.822Z" fill="#F5F5F5"/>
<path opacity="0.2" d="M180.929 81.8632C181.318 83.605 181.605 85.368 181.789 87.1432C186.629 86.2632 193.109 81.1432 193.789 76.2432C194.019 74.6001 194.066 72.9366 193.929 71.2832L180.929 81.8632Z" fill="#02080C"/>
<path d="M165.189 29.522C160.549 35.222 160.989 55.842 170.809 56.082C180.629 56.322 173.629 19.122 165.189 29.522Z" fill="#041119"/>
<path d="M207.489 44.522C206.509 60.142 206.709 69.322 198.829 77.402C186.989 89.542 167.789 82.562 164.089 67.022C160.789 53.022 162.949 29.842 178.209 23.502C181.542 22.076 185.186 21.5342 188.789 21.929C192.392 22.3239 195.832 23.6419 198.776 25.7558C201.721 27.8696 204.07 30.7076 205.596 33.9952C207.123 37.2827 207.775 40.9086 207.489 44.522Z" fill="#FFC3BD"/>
<path d="M199.809 31.5225C189.989 41.2625 202.749 48.4025 197.809 53.6425C207.069 58.4825 203.669 62.0425 203.669 62.0425C202.71 64.7055 202.71 67.6196 203.669 70.2825C214.109 67.6025 233.489 32.9225 212.329 27.6025C199.669 33.2425 199.809 31.5225 199.809 31.5225Z" fill="#041119"/>
<path d="M203.829 38.5224C194.529 39.9624 182.829 35.5224 175.569 31.7624C168.309 28.0024 167.249 35.1024 169.929 37.2624C165.269 37.4224 159.369 33.7424 160.829 25.5224C162.169 18.0224 171.989 10.9224 185.969 17.2624C195.869 21.7424 208.069 15.8424 212.829 21.0224C217.589 26.2024 210.029 37.5424 203.829 38.5224Z" fill="#041119"/>
<path d="M210.19 28.3426C216.43 27.5226 216.69 23.5826 214.95 16.6826C221.69 26.2626 218.95 29.2026 214.95 31.5226C210.49 30.0226 210.19 28.3426 210.19 28.3426Z" fill="#041119"/>
<path d="M211.689 56.503C210.306 59.5583 207.892 62.0294 204.869 63.483C201.009 65.223 199.049 61.663 200.089 57.483C201.029 53.703 204.089 48.263 208.089 48.303C212.089 48.343 213.429 52.643 211.689 56.503Z" fill="#FFC3BD"/>
<path d="M183.109 49.2434C183.109 50.5034 182.429 51.5434 181.609 51.5634C180.789 51.5834 180.189 50.5434 180.189 49.2434C180.189 47.9434 180.869 46.9434 181.689 46.9434C182.509 46.9434 183.109 47.9634 183.109 49.2434Z" fill="#041119"/>
<path d="M168.789 49.362C168.789 50.642 168.109 51.662 167.269 51.682C166.429 51.702 165.769 50.662 165.789 49.382C165.809 48.102 166.449 47.082 167.289 47.082C168.129 47.082 168.789 48.102 168.789 49.362Z" fill="#041119"/>
<path d="M174.189 49.8018C172.694 53.697 170.675 57.3707 168.189 60.7218C169.051 61.327 170.033 61.7386 171.069 61.9285C172.104 62.1184 173.169 62.082 174.189 61.8218V49.8018Z" fill="#ED847E"/>
<path d="M179.229 65.243C180.681 65.0804 182.083 64.6177 183.347 63.8844C184.61 63.151 185.708 62.163 186.569 60.983C186.622 60.9008 186.64 60.8008 186.62 60.7052C186.599 60.6096 186.541 60.526 186.459 60.473C186.377 60.4199 186.277 60.4017 186.181 60.4224C186.086 60.443 186.002 60.5008 185.949 60.583C184.987 61.8405 183.744 62.8566 182.321 63.5509C180.898 64.2452 179.333 64.5985 177.749 64.583C177.7 64.5829 177.652 64.5928 177.606 64.6122C177.561 64.6315 177.521 64.6598 177.487 64.6954C177.453 64.731 177.427 64.773 177.41 64.8191C177.394 64.8651 177.386 64.914 177.389 64.963C177.389 65.012 177.399 65.0605 177.418 65.1055C177.438 65.1506 177.466 65.1912 177.501 65.2249C177.537 65.2586 177.579 65.2847 177.625 65.3015C177.671 65.3184 177.72 65.3257 177.769 65.323C178.289 65.243 178.769 65.243 179.229 65.243Z" fill="#041119"/>
<path d="M190.049 44.182C190.175 44.175 190.295 44.1256 190.39 44.042C190.47 43.9849 190.537 43.9119 190.588 43.8277C190.638 43.7435 190.671 43.6497 190.684 43.5523C190.698 43.4549 190.691 43.3558 190.664 43.2611C190.637 43.1665 190.592 43.0783 190.53 43.002C189.843 42.055 188.941 41.2852 187.897 40.7565C186.854 40.2278 185.699 39.9555 184.53 39.962C184.433 39.9695 184.339 39.9963 184.253 40.0409C184.167 40.0855 184.091 40.147 184.029 40.2217C183.968 40.2964 183.922 40.3827 183.894 40.4756C183.867 40.5684 183.858 40.6658 183.87 40.762C183.89 40.9618 183.986 41.1461 184.139 41.2765C184.292 41.4069 184.489 41.4734 184.69 41.462C185.618 41.4533 186.535 41.6709 187.361 42.096C188.187 42.5212 188.897 43.141 189.43 43.902C189.503 43.9949 189.598 44.0688 189.705 44.1175C189.813 44.1662 189.931 44.1883 190.049 44.182Z" fill="#041119"/>
<path d="M162.989 44.8018C163.108 44.7855 163.221 44.7406 163.319 44.6709C163.416 44.6012 163.495 44.5089 163.549 44.4019C163.932 43.5363 164.513 42.7735 165.247 42.1756C165.98 41.5778 166.845 41.1619 167.769 40.9618C167.868 40.9527 167.963 40.9229 168.048 40.8744C168.134 40.8259 168.209 40.7599 168.267 40.6806C168.326 40.6013 168.367 40.5105 168.388 40.4143C168.409 40.318 168.41 40.2183 168.389 40.1219C168.355 39.9293 168.25 39.7566 168.094 39.6381C167.939 39.5195 167.744 39.4638 167.549 39.4819C166.383 39.7119 165.289 40.2165 164.357 40.9539C163.425 41.6913 162.682 42.6401 162.189 43.7218C162.105 43.9001 162.094 44.104 162.157 44.2906C162.221 44.4771 162.354 44.6318 162.529 44.7218C162.673 44.7885 162.832 44.8161 162.989 44.8018Z" fill="#041119"/>
<path d="M235.71 113.643C238.15 118.783 240.19 123.643 242.19 128.643C244.19 133.643 245.97 138.743 247.75 143.843C251.242 154.237 254.061 164.846 256.19 175.603C256.65 178.383 257.17 181.103 257.51 183.963L257.77 186.083L257.909 187.143V187.683V188.423C258.109 190.491 258.109 192.574 257.909 194.643C257.447 199.169 255.889 203.514 253.37 207.303C251.009 210.772 247.907 213.676 244.289 215.803C241.275 217.573 238.032 218.919 234.65 219.803C231.639 220.627 228.56 221.176 225.45 221.443C219.585 221.997 213.672 221.762 207.87 220.743C206.296 220.479 204.863 219.676 203.816 218.471C202.769 217.267 202.173 215.736 202.13 214.141C202.088 212.546 202.601 210.985 203.582 209.727C204.564 208.468 205.952 207.59 207.51 207.243L208.229 207.083C210.229 206.623 212.85 206.063 215.09 205.463C217.33 204.863 219.609 204.163 221.729 203.463C225.431 202.277 228.863 200.374 231.83 197.863C232.614 197.136 233.211 196.23 233.57 195.223C233.711 194.516 233.711 193.789 233.57 193.083C233.502 192.544 233.402 192.009 233.27 191.483L232.55 188.223C232.09 185.943 231.43 183.583 230.83 181.263C229.59 176.563 228.19 171.863 226.59 167.143C224.99 162.423 223.35 157.723 221.61 153.023C219.87 148.323 218.029 143.623 216.169 139.023C214.309 134.423 212.35 129.583 210.49 125.203V125.003C208.994 121.666 208.885 117.872 210.186 114.455C211.488 111.038 214.093 108.278 217.43 106.783C220.766 105.287 224.56 105.178 227.977 106.479C231.394 107.781 234.154 110.386 235.65 113.723L235.71 113.643Z" fill="#2659FF"/>
<path d="M201.549 213.002L192.729 217.242L207.969 222.662C207.969 222.662 218.129 219.422 213.209 213.782L210.469 212.922C206.069 211.482 203.909 211.642 201.549 213.002Z" fill="#FFC3BD"/>
<path d="M193.909 228.003L200.609 229.283C201.567 229.459 202.555 229.332 203.437 228.92C204.319 228.508 205.05 227.831 205.529 226.983L207.969 222.603L192.729 217.243L190.729 221.423C190.419 222.055 190.256 222.75 190.254 223.454C190.252 224.158 190.41 224.854 190.716 225.488C191.023 226.122 191.47 226.678 192.023 227.114C192.576 227.55 193.221 227.854 193.909 228.003Z" fill="#FFC3BD"/>
<defs>
<filter id="filter0_d" x="84.8438" y="0.599609" width="278.1" height="205.283" filterUnits="userSpaceOnUse" color-interpolation-filters="sRGB">
<feFlood flood-opacity="0" result="BackgroundImageFix"/>
<feColorMatrix in="SourceAlpha" type="matrix" values="0 0 0 0 0 0 0 0 0 0 0 0 0 0 0 0 0 0 127 0" result="hardAlpha"/>
<feOffset dx="-17" dy="8"/>
<feGaussianBlur stdDeviation="17.5"/>
<feColorMatrix type="matrix" values="0 0 0 0 0.920833 0 0 0 0 0.920833 0 0 0 0 0.920833 0 0 0 1 0"/>
<feBlend mode="normal" in2="BackgroundImageFix" result="effect1_dropShadow"/>
<feBlend mode="normal" in="SourceGraphic" in2="effect1_dropShadow" result="shape"/>
</filter>
</defs>
</svg>
