<svg width="1213" height="424" viewBox="0 0 1213 424" fill="none" xmlns="http://www.w3.org/2000/svg">
<path d="M1212.05 222.747L1074.97 360.039L800.593 634.207L663.509 497.123L937.677 222.747L663.509 -51.4211L800.593 -188.505L1212.05 222.747Z" stroke="#2659FF" stroke-miterlimit="10"/>
<path d="M526.425 359.831L663.509 496.915C512.071 648.352 266.402 648.352 114.965 496.915C-36.4726 345.477 -36.4726 99.8078 114.965 -51.6294C266.402 -203.067 512.071 -203.067 663.509 -51.6294L526.425 85.4546C491.27 50.2995 442.801 28.6656 389.341 28.6656C282.211 28.6656 195.468 115.409 195.468 222.539C195.468 329.668 282.211 416.62 389.133 416.62C442.801 416.62 491.27 394.986 526.425 359.831Z" stroke="#21D97A" stroke-miterlimit="10"/>
<path d="M583.214 222.748C583.214 276.417 561.58 324.885 526.425 359.832L389.341 222.748L526.425 85.6639C561.372 120.819 583.214 169.287 583.214 222.748Z" stroke="white" stroke-miterlimit="10"/>
</svg>
