<svg opacity=".3" width="1217" height="424" viewBox="0 0 1217 424" fill="none" xmlns="http://www.w3.org/2000/svg">
<g opacity="0.2" clip-path="url(#clip0)">
<path d="M1214.05 222.747L1076.97 360.039L802.593 634.207L665.509 497.123L939.677 222.747L665.509 -51.4211L802.593 -188.505L1214.05 222.747Z" stroke="#2659FF" stroke-miterlimit="10"/>
<path d="M528.425 359.831L665.509 496.915C514.071 648.352 268.402 648.352 116.965 496.915C-34.4726 345.477 -34.4726 99.8078 116.965 -51.6294C268.402 -203.067 514.071 -203.067 665.509 -51.6294L528.425 85.4546C493.27 50.2995 444.801 28.6656 391.341 28.6656C284.211 28.6656 197.468 115.409 197.468 222.539C197.468 329.668 284.211 416.62 391.133 416.62C444.801 416.62 493.27 394.986 528.425 359.831Z" stroke="#21D97A" stroke-miterlimit="10"/>
<path d="M585.214 222.748C585.214 276.417 563.58 324.885 528.425 359.832L391.341 222.748L528.425 85.6639C563.372 120.819 585.214 169.287 585.214 222.748Z" stroke="white" stroke-miterlimit="10"/>
</g>
<defs>
<clipPath id="clip0">
<rect width="1217" height="423" fill="white" transform="translate(0 0.0012207)"/>
</clipPath>
</defs>
</svg>
