<svg width="225" height="52" viewBox="0 0 225 52" fill="none" xmlns="http://www.w3.org/2000/svg">
<g id="logo">
<g id="elementos">
<path id="Vector" d="M59.1398 25.5506L59.4858 25.1996L59.1398 24.8486L42.2695 7.73555L50.1717 -0.287955L75.298 25.1998L67.0399 33.5846L67.0396 33.5848L50.1718 50.6873L42.2695 42.6637L59.1398 25.5506Z" fill="#2659FF" stroke="#2659FF"/>
<path id="Vector_2" d="M32.9489 34.6332L40.8619 42.6601C31.5252 51.7573 16.6877 51.6415 7.49109 42.3126C-1.82507 32.8624 -1.82507 17.537 7.49109 8.0868C16.6877 -1.24208 31.525 -1.35796 40.8617 7.73915L32.9485 15.7587C30.6897 13.6415 27.6679 12.3448 24.3432 12.3448C17.3369 12.3448 11.6716 18.1019 11.6716 25.1915C11.6716 32.2806 17.3362 38.0376 24.342 38.0382C27.6742 38.0463 30.6966 36.7504 32.9489 34.6332Z" fill="#21D97A" stroke="#21D97A"/>
<path id="Vector_3" d="M36.0229 25.1997C36.0229 28.294 34.8566 31.1062 32.9479 33.2156L25.0532 25.1998L32.9551 17.1842C34.8569 19.2938 36.0229 22.1058 36.0229 25.1997Z" fill="white" stroke="white"/>
</g>
<g id="letras">
<path id="Vector_4" d="M162.296 23.4821L162.583 24.1006L163.086 23.6412C164.435 22.4115 166.073 21.6944 167.856 21.6944C173.845 21.6944 178.554 27.119 177.369 33.3283L177.369 33.3288C176.635 37.2007 173.483 40.3153 169.616 41.0023C167.195 41.4283 164.905 40.9525 163 39.8522L162.249 39.419V40.2852V46.2802H158.143V22.0494H161.631L162.296 23.4821ZM162.121 30.247L162.12 30.2488C161.899 32.7581 162.683 34.4838 163.891 35.5732C165.079 36.6442 166.621 37.0512 167.856 37.0512C171.051 37.0512 173.463 34.4486 173.463 31.4235C173.463 28.3183 170.932 25.8221 167.856 25.8221C164.418 25.8221 162.317 28.1088 162.121 30.247Z" fill="white" stroke="white"/>
<path id="Vector_5" d="M185.665 25.809H185.165V26.309V31.4235C185.165 34.357 187.402 36.7636 190.271 37.0161V41.1398C185.151 40.8782 181.071 36.6212 181.071 31.4104V17.566H185.165V21.5494V22.0494H185.665H190.271V25.809H185.665Z" fill="white" stroke="white"/>
<path id="Vector_6" d="M135.568 31.4366C135.568 26.0445 139.916 21.6944 145.268 21.6944C150.621 21.6944 154.969 26.0445 154.969 31.4366C154.969 36.816 150.621 41.1788 145.268 41.1788C139.916 41.1788 135.568 36.816 135.568 31.4366ZM139.675 31.4366C139.675 34.5376 142.175 37.0512 145.268 37.0512C148.359 37.0512 150.876 34.5399 150.862 31.4355C150.862 28.335 148.361 25.8221 145.268 25.8221C142.175 25.8221 139.675 28.3356 139.675 31.4366Z" fill="white" stroke="white"/>
<path id="Vector_7" d="M106.81 36.0512H106.31V36.5512V41.1526H102.217V36.538V31.4235V21.1813V16.5667H106.81H111.904C117.255 16.5667 121.592 20.9283 121.605 26.3093C121.604 31.6885 117.257 36.0512 111.904 36.0512H106.81ZM106.31 31.4367V31.9367H106.81H111.904C114.999 31.9367 117.498 29.4083 117.498 26.309C117.498 23.208 114.998 20.6944 111.904 20.6944H106.81H106.31V21.1944V31.4367Z" fill="white" stroke="white"/>
<path id="Vector_8" d="M130.575 27.0356C130.322 27.2264 130.091 27.4376 129.885 27.6665V23.5066C131.061 22.4696 132.467 21.8297 133.979 21.7136V25.826C132.668 25.9156 131.478 26.3547 130.575 27.0356Z" fill="white" stroke="white"/>
<path id="Vector_9" d="M128.885 41.1657H124.791V22.0494H128.277L128.885 23.3928V41.1657Z" fill="white" stroke="white"/>
<path id="Vector_10" d="M221.096 27.0356C220.843 27.2264 220.612 27.4376 220.406 27.6665V23.5066C221.582 22.4696 222.988 21.8297 224.5 21.7136V25.826C223.19 25.9156 221.999 26.3547 221.096 27.0356Z" fill="white" stroke="white"/>
<path id="Vector_11" d="M219.406 41.1657H215.299V22.0494H218.787L219.406 23.3944V41.1657Z" fill="white" stroke="white"/>
<path id="Vector_12" d="M211.691 29.4467L211.691 29.4467L211.694 29.4602C211.84 30.0861 211.903 30.7437 211.903 31.4235V33.014H197.502H196.779L197.034 33.6906C197.798 35.714 199.557 37.2181 201.703 37.422V41.153C196.583 40.8921 192.515 36.6474 192.515 31.4235C192.515 26.0441 196.85 21.6944 202.203 21.6944C206.883 21.6944 210.781 25.0188 211.691 29.4467ZM197.033 29.1722L196.783 29.8461H197.502H206.917H207.64L207.384 29.1695C206.561 26.9895 204.572 25.4145 202.203 25.4145C199.834 25.4145 197.843 26.9894 197.033 29.1722Z" fill="white" stroke="white"/>
</g>
</g>
</svg>
